<?xml version="1.0" encoding="utf-8"?>
<!-- Generator: Adobe Illustrator 19.2.0, SVG Export Plug-In . SVG Version: 6.00 Build 0)  -->
<svg version="1.1" id="Layer_1" xmlns="http://www.w3.org/2000/svg" xmlns:xlink="http://www.w3.org/1999/xlink" x="0px" y="0px"
	 viewBox="0 0 111.2 15" style="enable-background:new 0 0 111.2 15;" xml:space="preserve">
<style type="text/css">
	.st0{fill:#FFFFFF;}
	.st1{fill:#1E88B2;}
</style>
<g>
	<g>
		<g>
			<path class="st0" d="M24.5,8.2h-2.9v1.5h3.2v1.8h-5.4v-8h5.2v1.8h-3v1.3h2.9V8.2z"/>
			<path class="st0" d="M25.5,3h2.1v8.4h-2.1V3z"/>
			<path class="st0" d="M30.2,9.3C30.3,9.7,31,10,31.7,10c0.5,0,1.1-0.1,1.6-0.2l0.3,1.4c-0.7,0.3-1.5,0.4-2.2,0.4
				c-2,0-3.2-1.1-3.2-3c0-1.3,0.9-3.1,3-3.1c1.9,0,2.7,1.4,2.7,3c0,0.3,0,0.7-0.1,0.8H30.2z M31.9,7.8c0-0.3-0.2-0.9-0.8-0.9
				c-0.6,0-0.9,0.6-0.9,0.9H31.9z"/>
			<path class="st0" d="M38.9,11.3c-0.3,0.2-0.9,0.2-1.6,0.2c-1.9,0-3.2-1.1-3.2-3c0-1.7,1.1-3.1,3.4-3.1c0.4,0,0.9,0.1,1.3,0.2
				l-0.3,1.6c-0.2-0.1-0.5-0.1-0.9-0.1c-0.8,0-1.4,0.5-1.3,1.4c0,0.9,0.7,1.4,1.4,1.4c0.4,0,0.7,0,0.9-0.2L38.9,11.3z"/>
			<path class="st0" d="M41.8,4v1.7H43v1.6h-1.2v1.7c0,0.7,0.2,1,0.7,1c0.2,0,0.3,0,0.5,0v1.6c-0.2,0.1-0.7,0.2-1.3,0.2
				c-0.6,0-1.1-0.2-1.5-0.5c-0.4-0.4-0.5-0.9-0.5-1.8v-2H39V5.6h0.7V4.5L41.8,4z"/>
			<path class="st0" d="M43.5,7.6c0-0.9,0-1.5,0-2h1.8l0.1,1.1h0c0.3-0.9,1-1.2,1.6-1.2c0.2,0,0.3,0,0.4,0v2c-0.2,0-0.3-0.1-0.5-0.1
				c-0.6,0-1.1,0.3-1.2,0.7c0,0.1,0,0.2,0,0.4v2.9h-2.1V7.6z"/>
			<path class="st0" d="M50.5,11.6c-1.7,0-3.1-1.1-3.1-3c0-1.9,1.2-3.1,3.2-3.1c1.8,0,3,1.2,3,3C53.7,10.6,52.2,11.6,50.5,11.6
				L50.5,11.6z M50.6,10.1c0.6,0,0.9-0.6,0.9-1.5c0-0.8-0.3-1.5-0.9-1.5c-0.7,0-0.9,0.8-0.9,1.5C49.7,9.4,49.9,10.1,50.6,10.1
				L50.6,10.1z"/>
			<path class="st0" d="M54.2,7.6c0-0.8,0-1.4,0-2H56l0.1,0.7h0c0.2-0.3,0.8-0.9,1.8-0.9C59.3,5.5,60,6.4,60,8v3.4h-2.1V8.3
				c0-0.7-0.2-1.1-0.7-1.1c-0.4,0-0.6,0.3-0.7,0.5c0,0.1-0.1,0.3-0.1,0.4v3.3h-2.1V7.6z"/>
			<path class="st0" d="M61.9,5c-0.7,0-1.1-0.5-1.1-1c0-0.6,0.4-1,1.1-1S63,3.4,63,4C63,4.6,62.6,5,61.9,5L61.9,5z M60.9,11.4V5.6
				H63v5.8H60.9z"/>
			<path class="st0" d="M68.3,11.3c-0.3,0.2-0.9,0.2-1.6,0.2c-1.9,0-3.2-1.1-3.2-3c0-1.7,1.1-3.1,3.4-3.1c0.4,0,0.9,0.1,1.3,0.2
				L68,7.3c-0.2-0.1-0.5-0.1-0.9-0.1c-0.8,0-1.4,0.5-1.3,1.4c0,0.9,0.7,1.4,1.4,1.4c0.4,0,0.7,0,0.9-0.2L68.3,11.3z"/>
			<path class="st0" d="M69,3.6c0.5-0.1,1-0.2,1.7-0.2c0.9,0,1.7,0.2,2.1,0.7c0.4,0.4,0.6,0.9,0.6,1.6c0,0.7-0.2,1.2-0.6,1.6
				c-0.5,0.6-1.4,0.9-2.3,0.9c-0.4,0-0.7,0-1-0.1v3.4H69V3.6z M69.6,7.5c0.3,0.1,0.6,0.1,1,0.1c1.4,0,2.3-0.7,2.3-2
				c0-1.3-0.9-1.8-2.2-1.8c-0.5,0-0.9,0-1.1,0.1V7.5z"/>
			<path class="st0" d="M77.7,10.1c0,0.4,0,0.9,0.1,1.3h-0.5l-0.1-0.8h0c-0.3,0.4-0.9,0.9-1.8,0.9c-1.1,0-1.7-0.8-1.7-1.6
				c0-1.3,1.1-2.1,3.5-2.1V7.8c0-0.6-0.1-1.7-1.5-1.7c-0.5,0-1,0.1-1.4,0.4L74,6.1c0.5-0.3,1.2-0.5,1.7-0.5c1.6,0,2,1.2,2,2.2V10.1z
				 M77.1,8.4c-1.2,0-2.9,0.2-2.9,1.5c0,0.8,0.5,1.2,1.1,1.2c0.9,0,1.5-0.6,1.7-1.1c0-0.1,0.1-0.2,0.1-0.3V8.4z"/>
			<path class="st0" d="M78.8,5.8l1.5,3.7c0.2,0.4,0.3,0.9,0.4,1.2h0c0.1-0.3,0.3-0.8,0.4-1.3l1.4-3.7h0.6L81.4,10
				c-0.7,1.8-1.2,2.8-1.9,3.5c-0.5,0.4-0.9,0.5-1,0.6l-0.2-0.5c0.3-0.1,0.7-0.3,1-0.6c0.3-0.3,0.7-0.8,0.9-1.4
				c0-0.1,0.1-0.2,0.1-0.2c0,0,0-0.1-0.1-0.2l-2.1-5.3H78.8z"/>
			<path class="st0" d="M83.7,7.1c0-0.5,0-0.9,0-1.4h0.5l0,1h0c0.4-0.7,0.9-1.1,1.8-1.1c0.8,0,1.4,0.5,1.6,1.2h0
				c0.2-0.3,0.4-0.6,0.6-0.8c0.4-0.3,0.7-0.5,1.3-0.5c0.6,0,1.9,0.3,1.9,2.5v3.4H91V8.1c0-1.3-0.5-2-1.5-2c-0.7,0-1.3,0.5-1.5,1.1
				c0,0.2-0.1,0.4-0.1,0.6v3.6h-0.6V7.9c0-1-0.5-1.8-1.4-1.8c-0.8,0-1.4,0.6-1.6,1.3c0,0.2-0.1,0.4-0.1,0.6v3.5h-0.6V7.1z"/>
			<path class="st0" d="M93,8.5c0,1.8,1,2.5,2.2,2.5c0.8,0,1.3-0.2,1.6-0.3l0.1,0.4c-0.2,0.1-0.8,0.4-1.8,0.4
				c-1.6,0-2.7-1.2-2.7-2.9c0-1.9,1.1-3.1,2.6-3.1c1.9,0,2.2,1.8,2.2,2.6c0,0.2,0,0.2,0,0.3H93z M96.6,8.1c0-0.8-0.3-2-1.7-2
				c-1.3,0-1.8,1.1-1.9,2H96.6z"/>
			<path class="st0" d="M98.2,7.1c0-0.5,0-0.9,0-1.4h0.5l0,1h0c0.3-0.6,1-1.1,2-1.1c0.5,0,2,0.3,2,2.4v3.4h-0.6V8.1c0-1-0.4-2-1.6-2
				c-0.8,0-1.5,0.6-1.7,1.3c0,0.1-0.1,0.3-0.1,0.5v3.5h-0.6V7.1z"/>
			<path class="st0" d="M104.9,4.5v1.3h1.6v0.5h-1.6v3.7c0,0.7,0.2,1.2,0.8,1.2c0.3,0,0.5,0,0.7-0.1l0.1,0.4
				c-0.2,0.1-0.4,0.1-0.8,0.1c-0.4,0-0.8-0.1-1-0.4c-0.3-0.3-0.4-0.8-0.4-1.4V6.2h-1V5.8h1v-1L104.9,4.5z"/>
			<path class="st0" d="M107,10.7c0.3,0.2,0.8,0.4,1.3,0.4c0.9,0,1.3-0.5,1.3-1.1c0-0.6-0.4-1-1.2-1.3c-0.9-0.4-1.4-0.9-1.4-1.6
				c0-0.8,0.7-1.5,1.8-1.5c0.5,0,1,0.2,1.3,0.4l-0.2,0.5c-0.2-0.1-0.6-0.3-1.1-0.3c-0.7,0-1.1,0.5-1.1,1c0,0.6,0.4,0.8,1.2,1.2
				c0.9,0.4,1.5,0.8,1.5,1.7c0,1-0.8,1.6-1.9,1.6c-0.5,0-1.1-0.2-1.4-0.4L107,10.7z"/>
		</g>
		<g>
			<g>
				<path class="st1" d="M6.4,1.9h1.2h6.7V1.6c0-0.4-0.4-0.8-0.8-0.8H1.6c-0.4,0-0.8,0.4-0.8,0.8V2c0,0,0.1,0,0.1,0H6.4z"/>
				<path class="st1" d="M5.4,5C4.9,5,4.7,4.6,4.8,4.2l0.4-1.3c0.1-0.2,0-0.4-0.2-0.4H0.8V6h7.5C8.8,6,9,6.3,8.9,6.8L8.4,8.2
					C8.2,8.7,7.7,9,7.3,9H3.9C3.5,9,3.2,8.7,3.4,8.2l0.4-1.3c0.1-0.2,0-0.4-0.2-0.4H0.8V10h2.8h1.2h7.1c0.5,0,0.7,0.4,0.5,0.8
					l-0.5,1.4c-0.2,0.4-0.7,0.8-1.1,0.8H2.5c-0.5,0-0.7-0.4-0.6-0.8L2.5,11c0.1-0.2,0-0.4-0.2-0.4H0.8v2.8c0,0.4,0.4,0.8,0.8,0.8
					h11.9c0.4,0,0.8-0.4,0.8-0.8V4.7C14.1,4.9,13.8,5,13.6,5H5.4z"/>
			</g>
		</g>
	</g>
</g>
</svg>
